<?xml version="1.0" encoding="utf-8"?>
<!-- Generator: Adobe Illustrator 24.0.1, SVG Export Plug-In . SVG Version: 6.00 Build 0)  -->
<svg version="1.1" id="ico" xmlns="http://www.w3.org/2000/svg" xmlns:xlink="http://www.w3.org/1999/xlink" x="0px" y="0px"
	 width="50px" height="50px" viewBox="0 0 50 50" style="enable-background:new 0 0 50 50;" xml:space="preserve">
<path d="M42.857,20.809H32.781v-2.943c0-0.209-0.1-0.404-0.269-0.526l-6.862-4.964v-1.536h5.893c0.359,0,0.65-0.291,0.65-0.65V7.143
	c0-0.359-0.291-0.65-0.65-0.65H25c-0.359,0-0.65,0.291-0.65,0.65v1.523v1.522v2.185l-6.914,4.964
	c-0.17,0.122-0.271,0.319-0.271,0.528v2.943H7.143c-0.359,0-0.65,0.291-0.65,0.65v21.398c0,0.359,0.291,0.65,0.65,0.65h16.085h3.544
	h16.085c0.359,0,0.65-0.291,0.65-0.65V21.459C43.507,21.1,43.216,20.809,42.857,20.809z M25.65,7.793h5.243v1.745H25.65V8.666V7.793
	z M23.877,42.207V37.62h2.245v4.587H23.877z M42.208,42.207H27.422V36.97c0-0.359-0.291-0.65-0.65-0.65h-3.544
	c-0.359,0-0.65,0.291-0.65,0.65v5.237H7.792V22.109h10.023c0.359,0,0.65-0.291,0.65-0.65v-3.26l6.533-4.691l6.482,4.689v3.262
	c0,0.359,0.291,0.65,0.65,0.65h10.077V42.207z M20.229,23.121h-3.544c-0.359,0-0.65,0.291-0.65,0.65v3.545
	c0,0.359,0.291,0.65,0.65,0.65h3.544c0.359,0,0.65-0.291,0.65-0.65v-3.545C20.879,23.412,20.588,23.121,20.229,23.121z
	 M19.579,26.666h-2.245v-2.244h2.245V26.666z M13.686,23.121h-3.544c-0.359,0-0.65,0.291-0.65,0.65v3.545
	c0,0.359,0.291,0.65,0.65,0.65h3.544c0.359,0,0.65-0.291,0.65-0.65v-3.545C14.336,23.412,14.045,23.121,13.686,23.121z
	 M13.036,26.666h-2.245v-2.244h2.245V26.666z M29.121,23.771v3.545c0,0.359,0.291,0.65,0.65,0.65h3.544
	c0.359,0,0.65-0.291,0.65-0.65v-3.545c0-0.359-0.291-0.65-0.65-0.65h-3.544C29.412,23.121,29.121,23.412,29.121,23.771z
	 M30.421,24.422h2.244v2.244h-2.244V24.422z M36.586,27.967h3.544c0.359,0,0.65-0.291,0.65-0.65v-3.545
	c0-0.359-0.291-0.65-0.65-0.65h-3.544c-0.359,0-0.65,0.291-0.65,0.65v3.545C35.937,27.676,36.228,27.967,36.586,27.967z
	 M37.236,24.422h2.245v2.244h-2.245V24.422z M26.772,23.121h-3.544c-0.359,0-0.65,0.291-0.65,0.65v3.545
	c0,0.359,0.291,0.65,0.65,0.65h3.544c0.359,0,0.65-0.291,0.65-0.65v-3.545C27.422,23.412,27.131,23.121,26.772,23.121z
	 M26.122,26.666h-2.245v-2.244h2.245V26.666z M25,15.965c-1.336,0-2.422,1.087-2.422,2.423s1.086,2.423,2.422,2.423
	c1.335,0,2.422-1.087,2.422-2.423S26.335,15.965,25,15.965z M25,19.51c-0.619,0-1.123-0.503-1.123-1.122s0.503-1.122,1.123-1.122
	c0.619,0,1.122,0.503,1.122,1.122S25.619,19.51,25,19.51z M20.229,29.721h-3.544c-0.359,0-0.65,0.291-0.65,0.65v3.544
	c0,0.359,0.291,0.65,0.65,0.65h3.544c0.359,0,0.65-0.291,0.65-0.65v-3.544C20.879,30.012,20.588,29.721,20.229,29.721z
	 M19.579,33.265h-2.245v-2.243h2.245V33.265z M13.686,29.721h-3.544c-0.359,0-0.65,0.291-0.65,0.65v3.544
	c0,0.359,0.291,0.65,0.65,0.65h3.544c0.359,0,0.65-0.291,0.65-0.65v-3.544C14.336,30.012,14.045,29.721,13.686,29.721z
	 M13.036,33.265h-2.245v-2.243h2.245V33.265z M33.315,29.721h-3.544c-0.359,0-0.65,0.291-0.65,0.65v3.544
	c0,0.359,0.291,0.65,0.65,0.65h3.544c0.359,0,0.65-0.291,0.65-0.65v-3.544C33.965,30.012,33.674,29.721,33.315,29.721z
	 M32.665,33.265h-2.244v-2.243h2.244V33.265z M36.586,34.565h3.544c0.359,0,0.65-0.291,0.65-0.65v-3.544
	c0-0.359-0.291-0.65-0.65-0.65h-3.544c-0.359,0-0.65,0.291-0.65,0.65v3.544C35.937,34.274,36.228,34.565,36.586,34.565z
	 M37.236,31.021h2.245v2.243h-2.245V31.021z M26.772,29.721h-3.544c-0.359,0-0.65,0.291-0.65,0.65v3.544
	c0,0.359,0.291,0.65,0.65,0.65h3.544c0.359,0,0.65-0.291,0.65-0.65v-3.544C27.422,30.012,27.131,29.721,26.772,29.721z
	 M26.122,33.265h-2.245v-2.243h2.245V33.265z M20.229,36.319h-3.544c-0.359,0-0.65,0.291-0.65,0.65v3.544
	c0,0.359,0.291,0.65,0.65,0.65h3.544c0.359,0,0.65-0.291,0.65-0.65V36.97C20.879,36.61,20.588,36.319,20.229,36.319z M19.579,39.863
	h-2.245V37.62h2.245V39.863z M13.686,36.319h-3.544c-0.359,0-0.65,0.291-0.65,0.65v3.544c0,0.359,0.291,0.65,0.65,0.65h3.544
	c0.359,0,0.65-0.291,0.65-0.65V36.97C14.336,36.61,14.045,36.319,13.686,36.319z M13.036,39.863h-2.245V37.62h2.245V39.863z
	 M33.315,36.319h-3.544c-0.359,0-0.65,0.291-0.65,0.65v3.544c0,0.359,0.291,0.65,0.65,0.65h3.544c0.359,0,0.65-0.291,0.65-0.65
	V36.97C33.965,36.61,33.674,36.319,33.315,36.319z M32.665,39.863h-2.244V37.62h2.244V39.863z M36.586,41.164h3.544
	c0.359,0,0.65-0.291,0.65-0.65V36.97c0-0.359-0.291-0.65-0.65-0.65h-3.544c-0.359,0-0.65,0.291-0.65,0.65v3.544
	C35.937,40.873,36.228,41.164,36.586,41.164z M37.236,37.62h2.245v2.243h-2.245V37.62z"/>
</svg>
