<?xml version="1.0" ?><svg data-name="Layer 1" id="Layer_1" viewBox="0 0 64 64" xmlns="http://www.w3.org/2000/svg"><path d="M46,23v-2.18c1.16-.41,2-1.51,2-2.82s-.84-2.4-2-2.82v-2.88l1.26-.34c.4-.11,.69-.44,.74-.85,.05-.41-.16-.8-.52-1L32.47,2.12c-.29-.16-.65-.16-.94,0l-15,8c-.36,.19-.57,.59-.52,1,.05,.41,.34,.75,.74,.85l6.26,1.67v1.36c0,2.76,2.24,5,5,5h8c2.76,0,5-2.24,5-5v-1.36l3-.8v2.35c-1.16,.41-2,1.51-2,2.82s.84,2.4,2,2.82v2.18h2Zm-7-8c0,1.65-1.35,3-3,3h-8c-1.65,0-3-1.35-3-3v-.83l6.74,1.8c.08,.02,.17,.03,.26,.03s.17-.01,.26-.03l6.74-1.8v.83Z"/><path d="M61.95,20.68c-.14-.41-.52-.68-.95-.68h-10c-.55,0-1,.45-1,1v13h-5.59l-11.71-11.71c-.39-.39-1.02-.39-1.41,0l-11.71,11.71h-5.59v-13c0-.55-.45-1-1-1H3c-.43,0-.81,.28-.95,.68-.14,.41,0,.86,.35,1.12l2.93,2.2-2.93,2.2c-.34,.26-.48,.71-.35,1.12,.14,.41,.52,.68,.95,.68H12v6H7c-.55,0-1,.45-1,1v6c0,.55,.45,1,1,1h1v18H2v2H62v-2h-6v-18h1c.55,0,1-.45,1-1v-6c0-.55-.45-1-1-1h-5v-6h9c.43,0,.81-.28,.95-.68,.14-.41,0-.86-.35-1.12l-2.93-2.2,2.93-2.2c.34-.26,.48-.71,.35-1.12ZM19,40H8v-4h11v4Zm16,20h-2v-6h2v6Zm8,0h-6v-7c0-.55-.45-1-1-1h-8c-.55,0-1,.45-1,1v7h-6v-24.59l11-11,11,11v24.59Zm13-24v4h-11v-4h11Z"/><path d="M26,37c0,3.31,2.69,6,6,6s6-2.69,6-6-2.69-6-6-6-6,2.69-6,6Zm5,3.86c-1.72-.45-3-2-3-3.86s1.28-3.41,3-3.86v7.72Z"/></svg>